<?xml version="1.0" standalone="no"?>
<!DOCTYPE svg PUBLIC "-//W3C//DTD SVG 20010904//EN"
 "http://www.w3.org/TR/2001/REC-SVG-20010904/DTD/svg10.dtd">
<svg version="1.0" xmlns="http://www.w3.org/2000/svg"
 width="254.000000pt" height="63.000000pt" viewBox="0 0 254.000000 63.000000"
 preserveAspectRatio="xMidYMid meet">

<g transform="translate(0.000000,63.000000) scale(0.100000,-0.100000)"
fill="#ffffff" stroke="none">
<path d="M242 614 c-12 -8 -22 -25 -22 -38 0 -23 28 -56 47 -56 17 0 43 -35
43 -58 0 -27 -44 -41 -73 -23 -15 10 -18 10 -15 -1 3 -7 20 -14 39 -16 70 -6
92 70 30 103 -64 32 -78 68 -36 87 21 9 28 8 45 -7 17 -15 20 -16 20 -3 0 9
-10 18 -22 22 -31 8 -31 8 -56 -10z"/>
<path d="M465 618 c-37 -20 -55 -51 -54 -98 0 -67 35 -101 101 -99 33 1 33 1
-6 9 -52 10 -76 40 -76 97 0 59 36 98 83 89 70 -13 101 -102 56 -160 -11 -14
-16 -26 -10 -26 21 0 51 53 51 92 0 50 -13 74 -50 93 -34 18 -67 19 -95 3z"/>
<path d="M700 525 l0 -105 30 0 c37 0 77 18 85 38 6 16 -20 62 -35 62 -6 0 -1
9 11 21 32 32 10 79 -36 78 -18 0 -18 -1 3 -9 12 -5 25 -16 28 -24 9 -24 -14
-56 -42 -56 -25 0 -26 2 -22 45 2 29 -1 46 -9 50 -10 3 -13 -20 -13 -100z m78
-17 c29 -29 7 -78 -35 -78 -21 0 -23 5 -23 45 0 40 2 45 23 45 13 0 28 -5 35
-12z"/>
<path d="M2176 537 c-21 -50 -41 -98 -43 -104 -3 -7 0 -13 6 -13 6 0 11 7 11
15 0 8 5 26 12 40 9 20 18 25 48 25 30 0 39 -5 48 -25 7 -14 12 -32 12 -40 0
-8 7 -15 15 -15 8 0 15 2 15 4 0 4 -81 200 -84 203 -2 2 -20 -39 -40 -90z m53
12 c6 -18 11 -34 11 -35 0 -2 -13 -4 -30 -4 -16 0 -30 2 -30 4 0 14 24 66 30
66 4 0 13 -14 19 -31z"/>
<path d="M1018 520 c-2 -62 1 -100 7 -100 6 0 9 34 8 87 l-2 88 40 -84 c22
-46 42 -81 44 -79 3 3 21 40 40 84 l34 79 1 -87 c0 -52 4 -88 10 -88 6 0 10
40 10 100 0 61 -4 100 -10 100 -6 0 -27 -37 -48 -81 l-37 -82 -34 82 c-19 44
-40 81 -47 81 -9 0 -14 -29 -16 -100z"/>
<path d="M1318 520 l-3 -100 53 0 c28 0 52 4 52 9 0 5 -18 7 -40 4 l-40 -6 0
46 c0 46 0 46 38 50 l37 4 -37 1 -38 2 0 45 c0 25 -4 45 -9 45 -5 0 -11 -45
-13 -100z"/>
<path d="M1363 613 c9 -2 25 -2 35 0 9 3 1 5 -18 5 -19 0 -27 -2 -17 -5z"/>
<path d="M1510 520 l0 -100 35 0 c46 0 101 23 114 48 15 27 13 93 -2 113 -18
24 -52 39 -84 38 -27 -1 -27 -1 5 -9 51 -12 72 -37 72 -84 -1 -56 -26 -86 -78
-93 l-42 -6 0 97 c0 57 -4 96 -10 96 -6 0 -10 -40 -10 -100z"/>
<path d="M1760 520 c0 -73 3 -100 13 -100 9 0 12 27 12 100 0 73 -3 100 -12
100 -10 0 -13 -27 -13 -100z"/>
<path d="M1890 519 l0 -101 57 4 c48 4 61 10 86 38 25 28 29 38 24 74 -8 60
-43 86 -113 86 l-54 0 0 -101z m105 85 c8 -4 23 -20 31 -35 32 -64 -12 -139
-82 -139 l-34 0 0 90 0 90 34 0 c19 0 42 -3 51 -6z"/>
<path d="M1592 368 c-5 -7 -25 -56 -43 -108 -31 -92 -68 -150 -96 -150 -18 0
-16 17 7 68 20 43 15 58 -8 22 -7 -11 -22 -20 -34 -20 -12 0 -34 -12 -50 -27
-26 -25 -29 -25 -46 -10 -26 23 -28 22 -56 -26 -30 -49 -32 -46 -11 13 24 67
16 71 -10 5 -41 -102 -28 -131 19 -45 27 50 39 59 52 39 3 -6 14 -9 24 -6 12
3 17 0 14 -8 -11 -27 19 -26 47 1 27 26 29 27 29 6 0 -30 12 -33 48 -12 l32
20 -6 -58 -6 -57 30 62 c26 52 54 83 76 83 17 0 2 -43 -24 -70 -16 -17 -30
-35 -30 -40 0 -19 20 -9 42 21 21 27 76 69 92 69 3 0 4 -11 0 -25 -8 -34 12
-33 48 2 27 26 28 26 28 5 0 -30 12 -33 48 -12 l32 19 -6 -43 c-4 -24 -2 -52
4 -61 9 -17 11 -17 33 6 13 13 32 35 41 49 l17 25 0 -37 c1 -51 16 -48 45 10
13 26 33 58 45 72 l20 25 1 -33 c0 -35 23 -53 43 -33 17 17 25 13 29 -11 5
-38 36 -34 53 6 9 20 22 36 29 36 8 0 21 2 29 6 10 3 16 -4 21 -27 5 -25 1
-37 -19 -61 -26 -31 -28 -49 -7 -56 7 -2 21 15 31 37 29 65 41 70 176 73 l120
2 -110 6 c-71 3 -104 8 -92 14 9 4 17 12 17 18 0 5 -21 -5 -46 -22 -25 -18
-48 -30 -51 -27 -2 3 -7 23 -10 45 -4 33 -2 42 18 56 16 11 19 16 8 16 -20 0
-39 -20 -39 -41 0 -11 -14 -20 -46 -28 -28 -7 -44 -16 -41 -24 5 -15 -10 -47
-23 -47 -15 0 -12 43 6 68 21 31 8 27 -33 -8 -39 -35 -53 -32 -53 11 0 55 -30
34 -76 -54 -14 -27 -28 -47 -31 -44 -13 13 31 152 73 231 48 91 54 126 10 59
-28 -41 -76 -154 -76 -177 0 -19 -87 -136 -101 -136 -16 0 -1 96 24 150 11 25
21 51 20 57 0 7 3 11 7 8 10 -6 53 90 48 106 -6 17 -53 -63 -80 -134 -20 -54
-62 -107 -85 -107 -17 0 -16 12 2 57 19 46 19 63 -1 35 -8 -12 -23 -22 -34
-22 -10 0 -38 -11 -61 -25 -53 -30 -69 -31 -69 -5 0 30 -29 25 -67 -12 -46
-45 -43 -27 24 145 33 85 38 112 15 85z m-172 -206 c0 -5 -11 -19 -25 -32 -28
-26 -33 -16 -9 18 15 22 34 30 34 14z m330 0 c0 -5 -11 -19 -25 -32 -28 -26
-33 -16 -9 18 15 22 34 30 34 14z m480 -137 c-7 -9 -15 -13 -18 -10 -3 2 1 11
8 20 7 9 15 13 18 10 3 -2 -1 -11 -8 -20z"/>
<path d="M1197 337 c-3 -9 -36 -22 -82 -32 -42 -10 -74 -19 -72 -21 2 -3 34 2
70 10 37 7 68 12 70 10 2 -2 -6 -52 -18 -112 -27 -130 -38 -205 -26 -177 5 11
20 80 34 154 14 76 31 137 39 142 7 5 29 9 48 9 19 1 53 5 75 10 29 6 19 7
-39 3 -56 -4 -80 -2 -86 7 -5 9 -9 8 -13 -3z"/>
<path d="M277 113 c155 -2 411 -2 570 0 158 1 32 2 -282 2 -314 0 -443 -1
-288 -2z"/>
</g>
</svg>
